<svg width="141" height="28" viewBox="0 0 141 28" fill="none" xmlns="http://www.w3.org/2000/svg">
<path d="M52.6308 25.689C47.7168 25.689 43.7029 21.6751 43.7029 16.7611V15.3988C43.7029 14.1825 44.6881 13.2094 45.8923 13.2094C47.0965 13.2094 48.0695 14.1825 48.0695 15.3988V16.7611C48.0695 19.2789 50.1251 21.3223 52.6308 21.3223C55.1486 21.3223 57.192 19.2789 57.192 16.7611C57.192 15.5569 58.1773 14.5717 59.3814 14.5717C60.5856 14.5717 61.5587 15.5569 61.5587 16.7611C61.5587 21.6751 57.5569 25.689 52.6308 25.689Z" fill="#4598AC"/>
<path d="M66.12 25.689C61.206 25.689 57.1921 21.6751 57.1921 16.7611V15.3988C57.1921 14.1825 58.1774 13.2094 59.3815 13.2094C60.5857 13.2094 61.5588 14.1825 61.5588 15.3988V16.7611C61.5588 19.2789 63.6144 21.3223 66.12 21.3223C68.6378 21.3223 70.6813 19.2789 70.6813 16.7611V15.3988C70.6813 14.1825 71.6665 13.2094 72.8707 13.2094C74.0749 13.2094 75.0479 14.1825 75.0479 15.3988V16.7611C75.0479 21.6751 71.0462 25.689 66.12 25.689Z" fill="#4598AC"/>
<path fill-rule="evenodd" clip-rule="evenodd" d="M86.6759 22.2832C81.762 22.2832 77.748 18.2693 77.748 13.3432C77.748 8.42919 81.762 4.41529 86.6759 4.41529C91.6021 4.41529 95.6038 8.42919 95.6038 13.3432C95.6038 18.2693 91.6021 22.2832 86.6759 22.2832ZM86.6759 8.78193C84.1581 8.78193 82.1147 10.8375 82.1147 13.3432C82.1147 15.861 84.1581 17.9166 86.6759 17.9166C89.1938 17.9166 91.2372 15.861 91.2372 13.3432C91.2372 10.8375 89.1938 8.78193 86.6759 8.78193Z" fill="#DB555B"/>
<path d="M84.6081 28C83.4039 28 82.4187 27.0269 82.4187 25.8106C82.4187 24.6064 83.4039 23.6334 84.6081 23.6334C88.2693 23.6334 91.2371 20.6533 91.2371 16.9922V13.3432C91.2371 12.139 92.2224 11.1659 93.4265 11.1659C94.6307 11.1659 95.6038 12.139 95.6038 13.3432V16.9922C95.6038 23.0617 90.6776 28 84.6081 28Z" fill="#DB555B"/>
<path d="M101.442 25.689H99.9097C98.7055 25.689 97.7324 24.7037 97.7324 23.4996C97.7324 22.2954 98.7055 21.3223 99.9097 21.3223H101.442C105.225 21.3223 108.29 18.245 108.29 14.4744V2.1894C108.29 0.973067 109.275 0 110.48 0C111.684 0 112.657 0.973067 112.657 2.1894V14.4744C112.657 20.6534 107.633 25.689 101.442 25.689Z" fill="#4598AC"/>
<path d="M102.5 17.576C101.296 17.576 100.323 16.603 100.323 15.3988V2.1894C100.323 0.973067 101.296 0 102.5 0C103.705 0 104.69 0.973067 104.69 2.1894V15.3988C104.69 16.603 103.705 17.576 102.5 17.576Z" fill="#4598AC"/>
<path d="M131.51 25.689C128.007 25.689 124.808 23.6212 123.373 20.4344C122.874 19.3276 123.361 18.0382 124.467 17.5395C125.562 17.0408 126.851 17.5274 127.35 18.6342C128.092 20.2641 129.722 21.3223 131.51 21.3223C134.028 21.3223 136.071 19.2789 136.071 16.7611C136.071 14.2433 134.028 12.1998 131.51 12.1998C130.877 12.1998 130.257 12.3215 129.685 12.5769C128.579 13.0634 127.289 12.5526 126.803 11.4579C126.328 10.351 126.827 9.06169 127.934 8.57516C129.065 8.07646 130.269 7.83319 131.51 7.83319C136.436 7.83319 140.438 11.8349 140.438 16.7611C140.438 21.6751 136.436 25.689 131.51 25.689Z" fill="#4598AC"/>
<path fill-rule="evenodd" clip-rule="evenodd" d="M122.655 22.2832C117.741 22.2832 113.727 18.2693 113.727 13.3432C113.727 8.42919 117.741 4.41529 122.655 4.41529C127.581 4.41529 131.583 8.42919 131.583 13.3432C131.583 18.2693 127.581 22.2832 122.655 22.2832ZM122.655 8.78193C120.15 8.78193 118.094 10.8375 118.094 13.3432C118.094 15.861 120.15 17.9166 122.655 17.9166C125.173 17.9166 127.216 15.861 127.216 13.3432C127.216 10.8375 125.173 8.78193 122.655 8.78193Z" fill="#4598AC"/>
<path d="M124.2 25.6525H114.542C113.338 25.6525 112.353 24.6794 112.353 23.4631C112.353 22.2589 113.338 21.2858 114.542 21.2858H124.2C125.404 21.2858 126.377 22.2589 126.377 23.4631C126.377 24.6794 125.404 25.6525 124.2 25.6525Z" fill="#4598AC"/>
<path d="M3.70982 25.689H2.17724C0.973067 25.689 0 24.7037 0 23.4996C0 22.2954 0.973067 21.3223 2.17724 21.3223H3.70982C7.49262 21.3223 10.5699 18.245 10.5699 14.4744V2.1894C10.5699 0.973067 11.543 0 12.7472 0C13.9514 0 14.9366 0.973067 14.9366 2.1894V14.4744C14.9366 20.6534 9.90096 25.689 3.70982 25.689Z" fill="#4598AC"/>
<path d="M4.78022 17.576C3.56389 17.576 2.59082 16.603 2.59082 15.3988V2.1894C2.59082 0.973067 3.56389 0 4.78022 0C5.98439 0 6.95746 0.973067 6.95746 2.1894V15.3988C6.95746 16.603 5.98439 17.576 4.78022 17.576Z" fill="#4598AC"/>
<path d="M33.7776 25.689C30.2746 25.689 27.0878 23.6212 25.6403 20.4344C25.1416 19.3276 25.6403 18.0382 26.735 17.5395C27.8297 17.0408 29.1312 17.5274 29.6178 18.6342C30.3597 20.2641 31.9896 21.3223 33.7776 21.3223C36.2954 21.3223 38.351 19.2789 38.351 16.7611C38.351 14.2433 36.2954 12.1998 33.7776 12.1998C33.1451 12.1998 32.537 12.3215 31.9531 12.5769C30.8463 13.0634 29.5691 12.5526 29.0826 11.4579C28.596 10.351 29.0947 9.06169 30.2016 8.57516C31.3328 8.07646 32.537 7.83319 33.7776 7.83319C38.7038 7.83319 42.7055 11.8349 42.7055 16.7611C42.7055 21.6751 38.7038 25.689 33.7776 25.689Z" fill="#4598AC"/>
<path fill-rule="evenodd" clip-rule="evenodd" d="M24.935 22.2832C20.0088 22.2832 16.0071 18.2693 16.0071 13.3432C16.0071 8.42919 20.0088 4.41529 24.935 4.41529C29.849 4.41529 33.8629 8.42919 33.8629 13.3432C33.8629 18.2693 29.849 22.2832 24.935 22.2832ZM24.935 8.78193C22.4172 8.78193 20.3737 10.8375 20.3737 13.3432C20.3737 15.861 22.4172 17.9166 24.935 17.9166C27.4406 17.9166 29.4962 15.861 29.4962 13.3432C29.4962 10.8375 27.4406 8.78193 24.935 8.78193Z" fill="#4598AC"/>
<path d="M26.4675 25.6525H16.8098C15.6056 25.6525 14.6326 24.6794 14.6326 23.4631C14.6326 22.2589 15.6056 21.2858 16.8098 21.2858H26.4675C27.6717 21.2858 28.6569 22.2589 28.6569 23.4631C28.6569 24.6794 27.6717 25.6525 26.4675 25.6525Z" fill="#4598AC"/>
</svg>
