<svg width="20" height="20" viewBox="0 0 20 20" fill="none" xmlns="http://www.w3.org/2000/svg">
<path d="M18 5.68202C18.3191 5.68202 18.6034 5.83141 18.7865 6.06403L18.7868 6.06057C19.5524 7.18199 20 8.53746 20 9.9974C20 13.7798 16.9956 16.8609 13.2414 16.9876L13.0008 16.9917L7.405 16.9911L8.70868 18.2941L8.78639 18.3813C9.09721 18.7735 9.07131 19.3449 8.70868 19.7073C8.3482 20.0675 7.78097 20.0953 7.38867 19.7904L7.29447 19.7073L4.28926 16.7042L4.21156 16.6171C3.92663 16.2575 3.92465 15.7474 4.20562 15.3857L4.28926 15.291L7.29447 12.2879L7.38169 12.2102C7.7415 11.9255 8.25199 11.9235 8.61389 12.2043L8.70868 12.2879L8.78639 12.3751C9.07131 12.7346 9.07329 13.2447 8.79232 13.6064L8.70868 13.7011L7.415 14.9925L13.0008 14.9931C15.7618 14.9931 18 12.7565 18 9.9974C18 8.97917 17.6952 8.03209 17.1717 7.24232C17.0637 7.08281 17 6.8895 17 6.68132C17 6.12942 17.4477 5.68202 18 5.68202ZM12.6251 0.215036L12.7123 0.292688L15.7175 3.29578C16.0801 3.65816 16.106 4.2296 15.7952 4.62185L15.7175 4.70901L12.7123 7.7121C12.3218 8.10235 11.6886 8.10235 11.2981 7.7121C10.9355 7.34973 10.9096 6.77828 11.2204 6.38604L11.2981 6.29888L12.595 5.00149L6.99921 5.00169C4.23822 5.00169 2 7.23835 2 9.9974C2 10.9153 2.24775 11.7755 2.68008 12.5146L2.81525 12.7327C2.93132 12.8952 3 13.0953 3 13.3114C3 13.8633 2.55228 14.3107 2 14.3107C1.666 14.3107 1.37024 14.1471 1.18863 13.8957C0.438329 12.7845 0 11.4421 0 9.9974C0 6.21503 3.00445 3.13389 6.75859 3.00715L6.99921 3.0031L12.597 3.00289L11.2981 1.70591C10.9355 1.34353 10.9096 0.77209 11.2204 0.379847L11.2981 0.292688C11.6607 -0.0696876 12.2326 -0.0955715 12.6251 0.215036Z" fill="#777777"/>
</svg>
